<svg id="Layer_1" data-name="Layer 1" xmlns="http://www.w3.org/2000/svg" viewBox="0 0 330.1 64"><defs><style>.cls-1{fill:#efd35e;}.cls-2{fill:#e8e3dd;}.cls-3{fill:#c9c8c7;}.cls-4{fill:#9e9e9e;}.cls-5{fill:#2d2b29;}.cls-6{fill:#3f3e3c;}.cls-7{fill:none;}.cls-8{fill:#3d3b3a;}.cls-9{fill:#383331;}.cls-10{fill:#595453;}.cls-11{fill:#2b2727;}.cls-12{fill:#e2dbd9;}.cls-13{fill:#edeae6;}.cls-14{fill:#333130;}.cls-15{fill:#3a3837;}.cls-16{fill:#f2f0ed;}.cls-17{fill:#dbd7d2;}.cls-18{fill:#70706f;}</style></defs><path class="cls-1" d="M62.26,32.87A31.13,31.13,0,1,1,18.42,4.45,29.35,29.35,0,0,1,22.32,3l.77-.22h0a31.31,31.31,0,0,1,8-1,30.9,30.9,0,0,1,13,2.83A29.16,29.16,0,0,1,48,6.7c.76.49,1.5,1,2.21,1.56A31.07,31.07,0,0,1,62.26,32.87Z"/><path class="cls-2" d="M51.75,38.75A2.45,2.45,0,0,1,49,40.21a5.3,5.3,0,0,1-1.31-.36c-.62-.25-1.21-.57-1.82-.86-5-2.35-10.82-1.69-16.33-2.14-.6-.05-1.2-.11-1.79-.19h0A60.66,60.66,0,0,1,16.05,33.8C13.51,33,11,32,8.48,31.06c-.52-.2-.78,1.32-1.29,1.07a16.4,16.4,0,0,1-.36-4.88,3.44,3.44,0,0,1,0-.39c.17-1.48.82-3.26,3.67-7.52q.84-1.26,1.77-2.4l.49.07a10.34,10.34,0,0,1,3.67,1.51h0l1.19.8c.61.44,1.21.91,1.8,1.36.34.27.69.54,1.06.8l.1.08a11.51,11.51,0,0,0,5.64,2.48c2.64.23,5.15-1,7.57-2.1s5.18-2,7.67-1.07c2.78,1,4.29,3.93,5.55,6.6q1.27,2.68,2.53,5.37c.56,1.18,1.12,2.36,1.67,3.54A3.47,3.47,0,0,1,51.75,38.75Z"/><path class="cls-3" d="M57,50.13a31.14,31.14,0,0,1-49.2,3.4l1.3-6.08.33-1.58,0-.14v0a15.36,15.36,0,0,1,.49-2,6.13,6.13,0,0,0,.25-4.08,1.09,1.09,0,0,0-.05-.17,1.05,1.05,0,0,0,0-.19h0c-.55-1.81-1.6-3.46-2.3-5.23-.08-.18-.15-.37-.21-.55l0-.08c-.06-.17-.12-.35-.17-.52a.14.14,0,0,0,0-.06l-.15-.54a.29.29,0,0,1,0-.09v0l-.12-.51v0A6.52,6.52,0,0,1,8.6,28.71a6.61,6.61,0,0,1,4.12-2.1,12.16,12.16,0,0,1,1.88.21h.07l.28.06h0a21.7,21.7,0,0,1,2.1.57h0c.91.3,1.81.65,2.69,1,.49.21,1,.44,1.46.66h0c1.67.79,3.31,1.65,5,2.46C30,33.44,34.08,35,38.25,34.48c2.52-.31,4.9-1.38,7.43-1.71a9.39,9.39,0,0,1,1.18-.1,13.82,13.82,0,0,1,2.73.18A14.64,14.64,0,0,1,53.32,34l.26.12L56,45.32l.38,1.75Z"/><path class="cls-4" d="M32.44,49a8.8,8.8,0,0,1-2.31,3.28,30.29,30.29,0,0,1-5.05,4.49,10.12,10.12,0,0,1-6.4,1.8A7.6,7.6,0,0,1,13.81,56c-2-2.29-2.51-5.61-4.3-8.1-.12-.17-.25-.33-.37-.48l.33-1.58,0-.14A15.46,15.46,0,0,1,10,43.67a6.13,6.13,0,0,0,.25-4.08,1.09,1.09,0,0,0-.05-.17l-.09-.24,0,0h0a13.54,13.54,0,0,1,1,1.74,8.38,8.38,0,0,0,1.13,1.51,11.51,11.51,0,0,0,6.8,3.21c3.17.42,6.37-.11,9.53-.53a4.43,4.43,0,0,1,2.75.23A3,3,0,0,1,32.44,49Z"/><path class="cls-5" d="M56.38,47.07a5.38,5.38,0,0,1-3.62-.73A10.58,10.58,0,0,1,48.11,41a8.58,8.58,0,0,1-.39-1.18,29.94,29.94,0,0,1-.76-6c0-.4-.06-.79-.1-1.19a14,14,0,0,0-1.57-5.84c-1.22-2.1-3.62-3.7-6-3.27-2.08.38-3.6,2.11-5.13,3.58S30.56,30,28.53,29.38c-2.83-.82-3.94-5-6.87-5.22-1.39-.12-2.8.75-4.13.48l-.3-.08c-1.87-.64-2.12-3.27-3.63-4.55a3.63,3.63,0,0,0-3.07-.67q.84-1.26,1.77-2.4l.46-.55a25.23,25.23,0,0,1,3.36-3.29,16.46,16.46,0,0,1,1.71-1.18.13.13,0,0,0,0-.06c.37-3.11.44-6.42.76-9.55,0-.24.06-.47.08-.71A2.72,2.72,0,0,1,19,.43a2.94,2.94,0,0,1,.25-.25.82.82,0,0,1,.4-.18h.16a.7.7,0,0,1,.24.09c.37.2.69.67,1.09.78C22.35,2,23.49,3.19,24.58,4.4c.28.3.55.61.82.92.8.92,1.58,1.87,2.33,2.83l.62,0,.62,0,.62,0,.61,0c.75.07,1.49.14,2.23.24l1.11.14.86.13.45.07.2,0,.71.12,1.1.21.8.15,1.41.3C40.94,7.88,42.78,5.85,44.65,4a3.91,3.91,0,0,1,2.66-1.45h.17l.17,0,.14,0a.39.39,0,0,1,.15.06l.15.06,0,0,.23.14h0l.13.11.13.12.08.08.1.1a.64.64,0,0,1,.1.13s0,0,0,0a.61.61,0,0,1,.12.16l.12.19A6.61,6.61,0,0,1,49.8,6a37.82,37.82,0,0,1,.46,12.82l3.32,15.35L56,45.32Z"/><path class="cls-6" d="M23.57,9.33A10.55,10.55,0,0,0,19.85,0a.7.7,0,0,1,.24.09c.37.2.69.67,1.09.78A68.75,68.75,0,0,1,27.7,8.11C26.32,8.51,25,8.91,23.57,9.33Z"/><path class="cls-6" d="M56,45.32c-1.8-5.34-3.06-18.2-8.72-27.54a17.73,17.73,0,0,0-3.45-4.16c-.39-.35-.61-.53-.61-.62,0-.57,1.09-.48,1.44-.4a4.41,4.41,0,0,0,1.66.32,2,2,0,0,0,1.42-1.22v0a5.38,5.38,0,0,0,.32-1.92,27,27,0,0,0-.76-7.17h.17l.17,0,.14,0a.39.39,0,0,1,.15.06l.15.06,0,0,.23.14h0l.13.11.13.12.08.08.1.1a.64.64,0,0,1,.1.13s0,0,0,0a.61.61,0,0,1,.12.16l.12.19A6.61,6.61,0,0,1,49.8,6a37.82,37.82,0,0,1,.46,12.82l3.32,15.35Z"/><path class="cls-7" d="M57,50.13a31.14,31.14,0,0,1-49.2,3.4l1.3-6.08.33-1.58,0-.14v0c.11-.48.42-1.89.49-2a6.13,6.13,0,0,0,.25-4.08,1.09,1.09,0,0,0-.05-.17,1.05,1.05,0,0,0,0-.19h0c-.55-1.81-1.6-3.46-2.3-5.23-.08-.18-.15-.37-.21-.55l0-.08c-.06-.17-.12-.35-.17-.52a.14.14,0,0,0,0-.06l-.15-.54a.29.29,0,0,1,0-.09v0l-.12-.51v0c0-.09,0-.18-.05-.26h0v0C7,31,6.94,30.7,6.9,30.4c0-.11,0-.23,0-.35l-.06-.77h0a11.8,11.8,0,0,1,.29-3.08v0a11.42,11.42,0,0,1,.46-1.51,22.93,22.93,0,0,1,3-5.32c.53-.71,1-1.44,1.54-2.11l.11-.14.12-.15.46-.55a25.23,25.23,0,0,1,3.36-3.29,16.46,16.46,0,0,1,1.71-1.18.13.13,0,0,0,0-.06c.28-2.41.39-4.94.58-7.41,0-.72.11-1.43.18-2.14,0-.24.06-.47.08-.71A2.72,2.72,0,0,1,19,.43a1,1,0,0,1,.25-.25.66.66,0,0,1,.19-.09.86.86,0,0,1,.42,0l.19.05A2.68,2.68,0,0,1,21,.73l.15.15c.65.62,1.28,1.26,1.91,1.91l1.08,1.15.41.46.39.43,0,0c.13.14.26.28.38.43l0,0,.45.52.31.37h0l.32.38.09.12.36.43.37.47,0,0,.35.45,0,0,0,.05.62,0,.62,0,.62,0,.61,0c.75.07,1.49.14,2.23.24l1.11.14.86.13.45.07.2,0,.71.12,1.1.21.8.15,1.41.3c1.69-1.64,3.35-3.45,5-5.12L44.65,4a3.91,3.91,0,0,1,2.66-1.45h.17l.17,0,.14,0a.39.39,0,0,1,.15.06l.15.06,0,0,.23.14h0l.13.11.13.11.08.09.1.1.1.12a0,0,0,0,1,0,0,.61.61,0,0,1,.12.16,2,2,0,0,1,.12.19A6.61,6.61,0,0,1,49.8,6c.14.79.28,1.54.39,2.31a37.57,37.57,0,0,1,.07,10.51l3.32,15.35L56,45.32l.38,1.75Z"/><path class="cls-8" d="M13.12,29.42a.35.35,0,0,1-.34-.27c-.28-1.17,1.35-2.39,3.42-3.94,2.6-1.95,5.55-4.16,4.18-6.13a2.19,2.19,0,0,0-1.91-.87,3.31,3.31,0,0,0-2.71,1.59.35.35,0,1,1-.59-.37,4.06,4.06,0,0,1,3.28-1.92A2.88,2.88,0,0,1,21,18.69c.78,1.13.6,2.41-.55,3.8a22.66,22.66,0,0,1-3.79,3.28c-1.56,1.17-3.33,2.49-3.16,3.23a.33.33,0,0,1-.26.41Z"/><path class="cls-8" d="M23.33,37.92c-.32,0-.65,0-1,0a11.13,11.13,0,0,1-6.1-2.82,3.73,3.73,0,0,1-4.09.21.34.34,0,0,1-.12-.47.35.35,0,0,1,.48-.12A3.08,3.08,0,0,0,16,34.35a.33.33,0,0,1,.45,0,10.65,10.65,0,0,0,5.93,2.84,11.08,11.08,0,0,0,6.51-1.49.34.34,0,0,1,.47.12.34.34,0,0,1-.12.47A11.75,11.75,0,0,1,23.33,37.92Z"/><path class="cls-8" d="M16.26,35a.35.35,0,0,1-.33-.24,6.74,6.74,0,0,1-.14-3.67.34.34,0,1,1,.67.16,6.13,6.13,0,0,0,.13,3.29.35.35,0,0,1-.23.44Z"/><path class="cls-9" d="M20.84,30.16A11.09,11.09,0,0,1,19,32.32a5.79,5.79,0,0,1-1.66,1,2.81,2.81,0,0,1-1.74.14,3.62,3.62,0,0,1-2-1.78,4.9,4.9,0,0,1-.68-2.15h0c-.12-2.27,2.27-3.06,4.18-3a5.89,5.89,0,0,1,3.25,1.19l.21.18h0A1.46,1.46,0,0,1,20.84,30.16Z"/><path class="cls-10" d="M20.56,28a12.84,12.84,0,0,0-4.63-.42,4.88,4.88,0,0,0-3,2h0c-.12-2.27,2.27-3.06,4.18-3a5.89,5.89,0,0,1,3.25,1.19l.21.18Z"/><path class="cls-11" d="M20.84,30.16A11.09,11.09,0,0,1,19,32.32a5.79,5.79,0,0,1-1.66,1,2.81,2.81,0,0,1-1.74.14,3.62,3.62,0,0,1-2-1.78,3.73,3.73,0,0,0,2.16.22A5.27,5.27,0,0,0,19,29.7a11.41,11.41,0,0,1,1.35-1.87l0,0,.21.18A1.45,1.45,0,0,1,20.84,30.16Z"/><path class="cls-8" d="M18.67,40.21a5.68,5.68,0,0,1-1.36-.16,5.92,5.92,0,0,1-3.54-2.51.35.35,0,0,1,.58-.38,5.16,5.16,0,0,0,6.92,1.67.34.34,0,0,1,.47.12.36.36,0,0,1-.13.48A5.93,5.93,0,0,1,18.67,40.21Z"/><path class="cls-12" d="M46.37,15.85a.56.56,0,0,0,1-.29,30.08,30.08,0,0,0,.42-4.34A13.59,13.59,0,0,0,47.59,9a1.15,1.15,0,0,0-2.09-.48,7.48,7.48,0,0,1-.45.62,7.9,7.9,0,0,1-1.37,1.34c-.44.33-1.3.56-1.64.95-.92,1,1.32,1.81,2,2.3A14.16,14.16,0,0,1,46.37,15.85Z"/><path class="cls-8" d="M50.28,19.17a5.64,5.64,0,0,0-2.07-2.89l0-.06a5.62,5.62,0,0,1,2.1,2.92Z"/><path class="cls-8" d="M22.51,9.88l0-.07A13.89,13.89,0,0,1,28,8.16v.08A13.91,13.91,0,0,0,22.51,9.88Z"/><path class="cls-13" d="M36.24,22.93a5.49,5.49,0,0,1-3.7,2.51,5.6,5.6,0,0,1-2,0,3.27,3.27,0,0,1-1.39-.56,1.3,1.3,0,0,1-.61-1.3,4.27,4.27,0,0,1,3.64-3,2.89,2.89,0,0,1,.72,0A4.3,4.3,0,0,1,36.24,22.93Z"/><path class="cls-14" d="M36.24,22.93a5.49,5.49,0,0,1-3.7,2.51,2.64,2.64,0,0,1,.32-4.82A4.3,4.3,0,0,1,36.24,22.93Z"/><path class="cls-15" d="M31.45,25.72a5.52,5.52,0,0,1-1-.09A3.35,3.35,0,0,1,29,25a1.47,1.47,0,0,1-.66-1.49,4.34,4.34,0,0,1,8.06-.7l0,.09,0,.08A5.85,5.85,0,0,1,31.45,25.72Zm1-4.95-.31,0a4.11,4.11,0,0,0-3.49,2.86,1.12,1.12,0,0,0,.54,1.11,3,3,0,0,0,1.32.53,5.51,5.51,0,0,0,5.52-2.37A4.17,4.17,0,0,0,32.47,20.77Z"/><path class="cls-16" d="M33.23,21.66a.49.49,0,1,1,1,0,.49.49,0,0,1-1,0Z"/><path class="cls-13" d="M19.83,22.12a3.42,3.42,0,0,1-.43.21,3.54,3.54,0,0,1-1.77.14l-.13,0a3.73,3.73,0,0,1-2.06-1.27,1.41,1.41,0,0,1,.05-1.86A3.92,3.92,0,0,1,18.4,18a3.2,3.2,0,0,1,1.17.26,2.18,2.18,0,0,1,1.36,1.64A2.25,2.25,0,0,1,19.83,22.12Z"/><path class="cls-14" d="M19.83,22.12a3.42,3.42,0,0,1-.43.21,3.54,3.54,0,0,1-1.77.14l-.13,0A2.76,2.76,0,0,1,17.11,21a2.8,2.8,0,0,1,2.46-2.78,2.18,2.18,0,0,1,1.36,1.64A2.25,2.25,0,0,1,19.83,22.12Z"/><path class="cls-15" d="M18.25,22.7a3.47,3.47,0,0,1-.64-.06,4,4,0,0,1-2.31-1.36,1.61,1.61,0,0,1,.06-2.09,4.12,4.12,0,0,1,3-1.39,2.7,2.7,0,0,1,2.71,2.05,2.51,2.51,0,0,1-1.65,2.64h0A3.46,3.46,0,0,1,18.25,22.7Zm.09-4.56a3.81,3.81,0,0,0-2.73,1.29,1.26,1.26,0,0,0,0,1.63,3.58,3.58,0,0,0,2.1,1.24,3.24,3.24,0,0,0,1.67-.14h0a1.84,1.84,0,0,0,.4-.19,2,2,0,0,0,1-2.07,2.34,2.34,0,0,0-2.37-1.76Z"/><path class="cls-16" d="M19.19,19.35a.49.49,0,1,1,1,0,.49.49,0,0,1-1,0Z"/><path class="cls-17" d="M18.58,16.58c-.65-.17-1.34-.56-1.45-1.22a1.34,1.34,0,0,1,1-1.37,2.65,2.65,0,0,1,1.77.16,5.4,5.4,0,0,1,1.92,1.28,1,1,0,0,1,.34.55C22.33,17.16,19.15,16.74,18.58,16.58Z"/><path class="cls-17" d="M33.6,19.39a3.68,3.68,0,0,0,2-.29,1.41,1.41,0,0,0,.74-1.7,1.35,1.35,0,0,0-.92-.72,3.46,3.46,0,0,0-1.2-.06,17.39,17.39,0,0,0-3.35.57c-1.06.28-1.65,1.11-.47,1.66A8.69,8.69,0,0,0,33.6,19.39Z"/><path class="cls-18" d="M74.14,17.24A54.71,54.71,0,0,1,83,16.61c4.18,0,6.75.41,8.95,1.71a6.61,6.61,0,0,1,3.65,5.94c0,2.7-1.58,5.22-5,6.48v.09c3.47,1,6,3.56,6,7.47a8.08,8.08,0,0,1-3.15,6.43c-2.2,1.76-5.89,2.75-11.92,2.75A53.89,53.89,0,0,1,74.14,47Zm6.8,11.61h2.25c3.6,0,5.53-1.49,5.53-3.74s-1.75-3.5-4.86-3.5a18.65,18.65,0,0,0-2.92.18Zm0,13.45a21.51,21.51,0,0,0,2.65.09c3.11,0,5.85-1.21,5.85-4.36s-2.74-4.28-6.16-4.28H80.94Z"/><path class="cls-18" d="M101.32,16.84h6.89V41.4h12.06v5.76h-19Z"/><path class="cls-18" d="M131.65,39.38l-2.16,7.78h-7.11l9.27-30.32h9l9.41,30.32h-7.38l-2.34-7.78Zm7.7-5.13-1.89-6.43c-.54-1.8-1.08-4.05-1.53-5.85h-.09c-.45,1.8-.9,4.09-1.4,5.85l-1.8,6.43Z"/><path class="cls-18" d="M175.26,46.31a19.38,19.38,0,0,1-7.79,1.35c-10.48,0-15.88-6.57-15.88-15.21,0-10.35,7.38-16.11,16.56-16.11a17.92,17.92,0,0,1,7.47,1.35l-1.4,5.45A14.69,14.69,0,0,0,168.46,22c-5.44,0-9.67,3.29-9.67,10,0,6.07,3.6,9.89,9.72,9.89a17.1,17.1,0,0,0,5.71-1Z"/><path class="cls-18" d="M179.76,16.84h6.79v13.4h.14c.67-1.17,1.39-2.25,2.07-3.32l6.88-10.08h8.42L194,29.75,204.6,47.16h-8l-7.43-13.09-2.61,3.19v9.9h-6.79Z"/><path class="cls-18" d="M216.48,17.24a61.83,61.83,0,0,1,9.27-.63c5.76,0,9.49,1,12.42,3.24,3.15,2.34,5.13,6.08,5.13,11.43,0,5.8-2.12,9.81-5,12.28-3.2,2.66-8.06,3.92-14,3.92a60.27,60.27,0,0,1-7.78-.45ZM223.36,42a13.16,13.16,0,0,0,2.39.13C232,42.17,236,38.75,236,31.51c0-6.3-3.65-9.63-9.54-9.63a14,14,0,0,0-3.11.27Z"/><path class="cls-18" d="M275.56,31.68c0,10-6,16-14.89,16s-14.27-6.8-14.27-15.44c0-9.08,5.81-15.88,14.76-15.88C270.48,16.34,275.56,23.32,275.56,31.68Zm-21.91.41c0,5.94,2.79,10.12,7.38,10.12s7.29-4.41,7.29-10.3c0-5.44-2.61-10.12-7.34-10.12S253.65,26.2,253.65,32.09Z"/><path class="cls-18" d="M305.4,45.77a34,34,0,0,1-10.13,1.71c-5.53,0-9.54-1.4-12.33-4.1a14.65,14.65,0,0,1-4.27-11c0-10.08,7.38-15.84,17.32-15.84A20.9,20.9,0,0,1,304.41,18L303,23.5a16.84,16.84,0,0,0-7.07-1.31c-5.71,0-10,3.24-10,9.81,0,6.25,3.91,9.94,9.54,9.94a9.17,9.17,0,0,0,3.37-.45V35.15H294.1V29.8h11.3Z"/><path class="cls-18" d="M328.8,34.34H317.64v7.2H330.1v5.62H310.75V16.84h18.72v5.62H317.64v6.3H328.8Z"/></svg>